<mxfile host="Electron" agent="Mozilla/5.0 (Windows NT 10.0; Win64; x64) AppleWebKit/537.36 (KHTML, like Gecko) draw.io/24.7.8 Chrome/128.0.6613.36 Electron/32.0.1 Safari/537.36" version="24.7.8">
  <diagram name="Страница — 1" id="CGnqzhUmD3gkOI63RsCn">
    <mxGraphModel dx="819" dy="482" grid="1" gridSize="10" guides="1" tooltips="1" connect="1" arrows="1" fold="1" page="1" pageScale="1" pageWidth="827" pageHeight="1169" math="0" shadow="0">
      <root>
        <mxCell id="0" />
        <mxCell id="1" parent="0" />
        <mxCell id="WqmcxRBwSJrKE4UfOD7i-1" value="Клиенты" style="rounded=0;whiteSpace=wrap;html=1;" vertex="1" parent="1">
          <mxGeometry x="110" y="90" width="90" height="30" as="geometry" />
        </mxCell>
        <mxCell id="WqmcxRBwSJrKE4UfOD7i-2" value="ID_Договра" style="ellipse;whiteSpace=wrap;html=1;" vertex="1" parent="1">
          <mxGeometry x="20" y="100" width="70" height="50" as="geometry" />
        </mxCell>
        <mxCell id="WqmcxRBwSJrKE4UfOD7i-3" value="Фамилия" style="ellipse;whiteSpace=wrap;html=1;" vertex="1" parent="1">
          <mxGeometry x="20" y="50" width="70" height="50" as="geometry" />
        </mxCell>
        <mxCell id="WqmcxRBwSJrKE4UfOD7i-4" value="Имя" style="ellipse;whiteSpace=wrap;html=1;" vertex="1" parent="1">
          <mxGeometry x="80" y="20" width="70" height="50" as="geometry" />
        </mxCell>
        <mxCell id="WqmcxRBwSJrKE4UfOD7i-5" value="Отчество" style="ellipse;whiteSpace=wrap;html=1;" vertex="1" parent="1">
          <mxGeometry x="150" y="20" width="70" height="50" as="geometry" />
        </mxCell>
        <mxCell id="WqmcxRBwSJrKE4UfOD7i-6" value="ID_Услуги|&lt;br&gt;Foreign" style="ellipse;whiteSpace=wrap;html=1;" vertex="1" parent="1">
          <mxGeometry x="210" y="60" width="70" height="50" as="geometry" />
        </mxCell>
        <mxCell id="WqmcxRBwSJrKE4UfOD7i-7" value="ID_Тарифа&lt;br&gt;Foreign" style="ellipse;whiteSpace=wrap;html=1;" vertex="1" parent="1">
          <mxGeometry x="210" y="110" width="70" height="50" as="geometry" />
        </mxCell>
        <mxCell id="WqmcxRBwSJrKE4UfOD7i-9" value="Тарифы" style="rounded=0;whiteSpace=wrap;html=1;" vertex="1" parent="1">
          <mxGeometry x="400" y="30" width="90" height="30" as="geometry" />
        </mxCell>
        <mxCell id="WqmcxRBwSJrKE4UfOD7i-11" value="Услуги" style="rounded=0;whiteSpace=wrap;html=1;" vertex="1" parent="1">
          <mxGeometry x="400" y="90" width="90" height="30" as="geometry" />
        </mxCell>
        <mxCell id="WqmcxRBwSJrKE4UfOD7i-13" value="ID_Тарифа&lt;br&gt;Primary" style="ellipse;whiteSpace=wrap;html=1;" vertex="1" parent="1">
          <mxGeometry x="500" width="70" height="50" as="geometry" />
        </mxCell>
        <mxCell id="WqmcxRBwSJrKE4UfOD7i-14" value="Цена" style="ellipse;whiteSpace=wrap;html=1;" vertex="1" parent="1">
          <mxGeometry x="580" y="20" width="70" height="50" as="geometry" />
        </mxCell>
        <mxCell id="WqmcxRBwSJrKE4UfOD7i-15" value="ID_Услуги&lt;br&gt;Primary" style="ellipse;whiteSpace=wrap;html=1;" vertex="1" parent="1">
          <mxGeometry x="500" y="100" width="70" height="50" as="geometry" />
        </mxCell>
        <mxCell id="WqmcxRBwSJrKE4UfOD7i-16" value="Цена" style="ellipse;whiteSpace=wrap;html=1;" vertex="1" parent="1">
          <mxGeometry x="580" y="80" width="70" height="50" as="geometry" />
        </mxCell>
        <mxCell id="WqmcxRBwSJrKE4UfOD7i-18" value="Запрос" style="rounded=0;whiteSpace=wrap;html=1;" vertex="1" parent="1">
          <mxGeometry x="110" y="270" width="90" height="30" as="geometry" />
        </mxCell>
        <mxCell id="WqmcxRBwSJrKE4UfOD7i-19" value="ID_Договра&lt;br&gt;Foreign" style="ellipse;whiteSpace=wrap;html=1;" vertex="1" parent="1">
          <mxGeometry x="80" y="320" width="70" height="50" as="geometry" />
        </mxCell>
        <mxCell id="WqmcxRBwSJrKE4UfOD7i-21" value="Key_ID" style="ellipse;whiteSpace=wrap;html=1;" vertex="1" parent="1">
          <mxGeometry x="70" y="140" width="70" height="50" as="geometry" />
        </mxCell>
        <mxCell id="WqmcxRBwSJrKE4UfOD7i-22" value="Key_ID" style="ellipse;whiteSpace=wrap;html=1;" vertex="1" parent="1">
          <mxGeometry x="30" y="280" width="70" height="50" as="geometry" />
        </mxCell>
        <mxCell id="WqmcxRBwSJrKE4UfOD7i-23" value="ID_Услуги|&lt;br&gt;Foreign" style="ellipse;whiteSpace=wrap;html=1;" vertex="1" parent="1">
          <mxGeometry x="160" y="320" width="70" height="50" as="geometry" />
        </mxCell>
        <mxCell id="WqmcxRBwSJrKE4UfOD7i-24" value="ID_Тарифа&lt;br&gt;Foreign" style="ellipse;whiteSpace=wrap;html=1;" vertex="1" parent="1">
          <mxGeometry x="210" y="280" width="70" height="50" as="geometry" />
        </mxCell>
        <mxCell id="WqmcxRBwSJrKE4UfOD7i-25" value="Админка" style="rounded=0;whiteSpace=wrap;html=1;" vertex="1" parent="1">
          <mxGeometry x="400" y="270" width="90" height="30" as="geometry" />
        </mxCell>
        <mxCell id="WqmcxRBwSJrKE4UfOD7i-26" value="Список намерений" style="ellipse;whiteSpace=wrap;html=1;" vertex="1" parent="1">
          <mxGeometry x="360" y="330" width="70" height="50" as="geometry" />
        </mxCell>
        <mxCell id="WqmcxRBwSJrKE4UfOD7i-27" value="Ключевые слвоа" style="ellipse;whiteSpace=wrap;html=1;" vertex="1" parent="1">
          <mxGeometry x="440" y="340" width="70" height="50" as="geometry" />
        </mxCell>
        <mxCell id="WqmcxRBwSJrKE4UfOD7i-28" value="Сопроводительный текст" style="ellipse;whiteSpace=wrap;html=1;" vertex="1" parent="1">
          <mxGeometry x="510" y="310" width="70" height="50" as="geometry" />
        </mxCell>
        <mxCell id="WqmcxRBwSJrKE4UfOD7i-29" value="Адреса почты" style="ellipse;whiteSpace=wrap;html=1;" vertex="1" parent="1">
          <mxGeometry x="520" y="250" width="70" height="50" as="geometry" />
        </mxCell>
      </root>
    </mxGraphModel>
  </diagram>
</mxfile>
